 http://kastatic.com/i2/u/1813980/0aq32UMZvX.gif

Cover 
http://www.shotpix.com/images/73806047424352905633.png

General
Complete name                            : 50 Cent Feat. Akon - I'll Still Kill (Dirty) 720p [Sbyky].avi
Format                                   : AVI
Format/Info                              : Audio Video Interleave
File size                                : 74.7 MiB
Duration                                 : 3mn 51s
Overall bit rate                         : 2 712 Kbps

Video
ID                                       : 0
Format                                   : AVC
Format/Info                              : Advanced Video Codec
Format profile                           : High@L5.1
Format settings, CABAC                   : Yes
Format settings, ReFrames                : 2 frames
Codec ID                                 : H264
Duration                                 : 3mn 51s
Bit rate                                 : 2 540 Kbps
Width                                    : 1 280 pixels
Height                                   : 720 pixels
Display aspect ratio                     : 16:9
Frame rate                               : 30.000 fps
Color space                              : YUV
Chroma subsampling                       : 4:2:0
Bit depth                                : 8 bits
Scan type                                : Progressive
Bits/(Pixel*Frame)                       : 0.092
Stream size                              : 70.0 MiB (94%)

Audio
ID                                       : 1
Format                                   : MPEG Audio
Format version                           : Version 1
Format profile                           : Layer 3
Codec ID                                 : 55
Codec ID/Hint                            : MP3
Duration                                 : 3mn 51s
Bit rate mode                            : Constant
Bit rate                                 : 160 Kbps
Channel(s)                               : 2 channels
Sampling rate                            : 44.1 KHz
Compression mode                         : Lossy
Stream size                              : 4.41 MiB (6%)
Alignment                                : Split accross interleaves
Interleave, duration                     : 33 ms (1.00 video frame)
Interleave, preload duration             : 103 ms

Shared By Sbyky 
http://kastatic.com/i2/u/1813980/bQg62viaEG.gif